<svg fill="#7f8091" xmlns="http://www.w3.org/2000/svg"  viewBox="0 0 32 32" width="32px" height="32px"><path d="M 8 2 L 8 14.488281 L 9.585938 14.488281 L 10 13.765625 C 11.339844 11.441406 13.820313 10 16.5 10 C 20.636719 10 24 13.363281 24 17.5 C 24 21.636719 20.636719 25 16.5 25 C 14.835938 25 13.273438 24.445313 12 23.488281 L 12 17.5 C 12 15.003906 14.003906 13 16.5 13 C 18.996094 13 21 15.003906 21 17.5 C 21 19.996094 18.996094 22 16.5 22 C 16.105469 22 15.722656 21.949219 15.359375 21.855469 L 14.855469 23.789063 C 15.382813 23.925781 15.933594 24 16.5 24 C 20.078125 24 23 21.078125 23 17.5 C 23 13.921875 20.078125 11 16.5 11 C 12.921875 11 10 13.921875 10 17.5 L 10 21.210938 C 9.9375 21.097656 9.859375 20.996094 9.804688 20.878906 L 9.351563 19.988281 L 7.566406 20.890625 L 8.019531 21.785156 C 9.648438 25 12.894531 27 16.5 27 C 21.738281 27 26 22.738281 26 17.5 C 26 12.261719 21.738281 8 16.5 8 C 14.050781 8 11.738281 8.960938 10 10.59375 L 10 4 L 25 4 L 25 2 Z M 16.5 5 C 14.972656 5 13.503906 5.277344 12.144531 5.78125 L 11.207031 6.125 L 11.90625 8 L 12.84375 7.65625 C 13.980469 7.230469 15.210938 7 16.5 7 C 19.910156 7 22.929688 8.621094 24.847656 11.128906 L 25.453125 11.921875 L 27.042969 10.710938 L 26.4375 9.914063 C 24.152344 6.929688 20.546875 5 16.5 5 Z M 15 14.585938 L 13.585938 16 L 15.085938 17.5 L 13.585938 19 L 15 20.414063 L 16.5 18.914063 L 18 20.414063 L 19.414063 19 L 17.914063 17.5 L 19.414063 16 L 18 14.585938 L 16.5 16.085938 Z M 4 16.5 L 4 17.5 C 4 24.390625 9.609375 30 16.5 30 C 21.632813 30 26.058594 26.898438 27.980469 22.457031 L 28.375 21.542969 L 26.539063 20.75 L 26.140625 21.664063 C 24.53125 25.390625 20.828125 28 16.5 28 C 10.691406 28 6 23.308594 6 17.5 L 6 16.5 Z"/></svg>